<svg width="25" height="25" viewBox="0 0 25 25" fill="none" xmlns="http://www.w3.org/2000/svg">
<path d="M11.1509 20.9633C11.1509 21.1673 11.0698 21.363 10.9255 21.5073C10.7813 21.6516 10.5856 21.7326 10.3815 21.7326H4.9958C4.5877 21.7326 4.1963 21.5705 3.90773 21.2819C3.61915 20.9934 3.45703 20.602 3.45703 20.1939V4.80614C3.45703 4.39803 3.61915 4.00664 3.90773 3.71806C4.1963 3.42948 4.5877 3.26736 4.9958 3.26736H10.3815C10.5856 3.26736 10.7813 3.34842 10.9255 3.49271C11.0698 3.637 11.1509 3.8327 11.1509 4.03675C11.1509 4.2408 11.0698 4.4365 10.9255 4.58079C10.7813 4.72508 10.5856 4.80614 10.3815 4.80614H4.9958V20.1939H10.3815C10.5856 20.1939 10.7813 20.2749 10.9255 20.4192C11.0698 20.5635 11.1509 20.7592 11.1509 20.9633ZM21.6973 11.9557L17.8503 8.10873C17.706 7.96436 17.5102 7.88326 17.306 7.88326C17.1018 7.88326 16.906 7.96436 16.7616 8.10873C16.6173 8.2531 16.5362 8.4489 16.5362 8.65307C16.5362 8.85724 16.6173 9.05304 16.7616 9.19741L19.2958 11.7306H10.3815C10.1775 11.7306 9.98176 11.8117 9.83747 11.956C9.69318 12.1003 9.61212 12.2959 9.61212 12.5C9.61212 12.7041 9.69318 12.8998 9.83747 13.044C9.98176 13.1883 10.1775 13.2694 10.3815 13.2694H19.2958L16.7616 15.8026C16.6173 15.947 16.5362 16.1428 16.5362 16.3469C16.5362 16.5511 16.6173 16.7469 16.7616 16.8913C16.906 17.0356 17.1018 17.1167 17.306 17.1167C17.5102 17.1167 17.706 17.0356 17.8503 16.8913L21.6973 13.0443C21.7688 12.9729 21.8255 12.888 21.8643 12.7946C21.903 12.7012 21.9229 12.6011 21.9229 12.5C21.9229 12.3989 21.903 12.2988 21.8643 12.2054C21.8255 12.112 21.7688 12.0271 21.6973 11.9557Z" fill="#F6F6F6"/>
</svg>
