<svg width="25" height="26" viewBox="0 0 25 26" fill="none" xmlns="http://www.w3.org/2000/svg">
<path d="M23.4375 10.1577C23.4375 16.9937 13.3018 22.5269 12.8701 22.7554C12.7563 22.8166 12.6292 22.8486 12.5 22.8486C12.3708 22.8486 12.2436 22.8166 12.1299 22.7554C11.6982 22.5269 1.5625 16.9937 1.5625 10.1577C1.56431 8.55247 2.20279 7.01348 3.33788 5.8784C4.47296 4.74332 6.01194 4.10484 7.61719 4.10303C9.63379 4.10303 11.3994 4.97021 12.5 6.43604C13.6006 4.97021 15.3662 4.10303 17.3828 4.10303C18.9881 4.10484 20.527 4.74332 21.6621 5.8784C22.7972 7.01348 23.4357 8.55247 23.4375 10.1577Z" fill="#F6F6F6"/>
</svg>
