<svg width="32" height="33" viewBox="0 0 32 33" fill="none" xmlns="http://www.w3.org/2000/svg">
<g filter="url(#filter0_d_74_1473)">
<path d="M22 22.5C21.1667 22.5 20.4583 22.2083 19.875 21.625C19.2917 21.0417 19 20.3333 19 19.5C19 19.3833 19.0083 19.2625 19.025 19.1375C19.0417 19.0125 19.0667 18.9 19.1 18.8L12.05 14.7C11.7667 14.95 11.45 15.1458 11.1 15.2875C10.75 15.4292 10.3833 15.5 10 15.5C9.16667 15.5 8.45833 15.2083 7.875 14.625C7.29167 14.0417 7 13.3333 7 12.5C7 11.6667 7.29167 10.9583 7.875 10.375C8.45833 9.79167 9.16667 9.5 10 9.5C10.3833 9.5 10.75 9.57083 11.1 9.7125C11.45 9.85417 11.7667 10.05 12.05 10.3L19.1 6.2C19.0667 6.1 19.0417 5.9875 19.025 5.8625C19.0083 5.7375 19 5.61667 19 5.5C19 4.66667 19.2917 3.95833 19.875 3.375C20.4583 2.79167 21.1667 2.5 22 2.5C22.8333 2.5 23.5417 2.79167 24.125 3.375C24.7083 3.95833 25 4.66667 25 5.5C25 6.33333 24.7083 7.04167 24.125 7.625C23.5417 8.20833 22.8333 8.5 22 8.5C21.6167 8.5 21.25 8.42917 20.9 8.2875C20.55 8.14583 20.2333 7.95 19.95 7.7L12.9 11.8C12.9333 11.9 12.9583 12.0125 12.975 12.1375C12.9917 12.2625 13 12.3833 13 12.5C13 12.6167 12.9917 12.7375 12.975 12.8625C12.9583 12.9875 12.9333 13.1 12.9 13.2L19.95 17.3C20.2333 17.05 20.55 16.8542 20.9 16.7125C21.25 16.5708 21.6167 16.5 22 16.5C22.8333 16.5 23.5417 16.7917 24.125 17.375C24.7083 17.9583 25 18.6667 25 19.5C25 20.3333 24.7083 21.0417 24.125 21.625C23.5417 22.2083 22.8333 22.5 22 22.5ZM22 6.5C22.2833 6.5 22.5208 6.40417 22.7125 6.2125C22.9042 6.02083 23 5.78333 23 5.5C23 5.21667 22.9042 4.97917 22.7125 4.7875C22.5208 4.59583 22.2833 4.5 22 4.5C21.7167 4.5 21.4792 4.59583 21.2875 4.7875C21.0958 4.97917 21 5.21667 21 5.5C21 5.78333 21.0958 6.02083 21.2875 6.2125C21.4792 6.40417 21.7167 6.5 22 6.5ZM10 13.5C10.2833 13.5 10.5208 13.4042 10.7125 13.2125C10.9042 13.0208 11 12.7833 11 12.5C11 12.2167 10.9042 11.9792 10.7125 11.7875C10.5208 11.5958 10.2833 11.5 10 11.5C9.71667 11.5 9.47917 11.5958 9.2875 11.7875C9.09583 11.9792 9 12.2167 9 12.5C9 12.7833 9.09583 13.0208 9.2875 13.2125C9.47917 13.4042 9.71667 13.5 10 13.5ZM22 20.5C22.2833 20.5 22.5208 20.4042 22.7125 20.2125C22.9042 20.0208 23 19.7833 23 19.5C23 19.2167 22.9042 18.9792 22.7125 18.7875C22.5208 18.5958 22.2833 18.5 22 18.5C21.7167 18.5 21.4792 18.5958 21.2875 18.7875C21.0958 18.9792 21 19.2167 21 19.5C21 19.7833 21.0958 20.0208 21.2875 20.2125C21.4792 20.4042 21.7167 20.5 22 20.5Z" fill="#F6F6F6"/>
</g>
<defs>
<filter id="filter0_d_74_1473" x="0" y="0.5" width="32" height="32" filterUnits="userSpaceOnUse" color-interpolation-filters="sRGB">
<feFlood flood-opacity="0" result="BackgroundImageFix"/>
<feColorMatrix in="SourceAlpha" type="matrix" values="0 0 0 0 0 0 0 0 0 0 0 0 0 0 0 0 0 0 127 0" result="hardAlpha"/>
<feOffset dy="4"/>
<feGaussianBlur stdDeviation="2"/>
<feComposite in2="hardAlpha" operator="out"/>
<feColorMatrix type="matrix" values="0 0 0 0 0 0 0 0 0 0 0 0 0 0 0 0 0 0 0.25 0"/>
<feBlend mode="normal" in2="BackgroundImageFix" result="effect1_dropShadow_74_1473"/>
<feBlend mode="normal" in="SourceGraphic" in2="effect1_dropShadow_74_1473" result="shape"/>
</filter>
</defs>
</svg>
